<?xml version="1.0" encoding="iso-8859-1"?>
<!-- Generator: Adobe Illustrator 16.0.0, SVG Export Plug-In . SVG Version: 6.00 Build 0)  -->
<!DOCTYPE svg PUBLIC "-//W3C//DTD SVG 1.1//EN" "http://www.w3.org/Graphics/SVG/1.1/DTD/svg11.dtd">
<svg version="1.1" id="Capa_1" xmlns="http://www.w3.org/2000/svg" xmlns:xlink="http://www.w3.org/1999/xlink" x="0px" y="0px"
	 width="353.052px" height="353.052px" viewBox="0 0 353.052 353.052" style="enable-background:new 0 0 353.052 353.052;"
	 xml:space="preserve">
<g>
	<g>
		<path d="M325.82,97.596c0,21.768-13.984,39.415-31.236,39.415h-76.357c-17.258,0-31.236-17.647-31.236-39.415
			c0-9.211,2.521-17.672,6.725-24.38h-31.377c4.2,6.708,6.725,15.168,6.725,24.38c0,21.768-13.982,39.415-31.237,39.415H61.462
			c-17.252,0-31.234-17.647-31.234-39.415c0-9.211,2.525-17.672,6.726-24.38H3.075v173.899c0,47.696,38.812,86.499,86.502,86.499
			h173.89c47.702,0,86.506-38.803,86.506-86.499V73.216h-30.883C323.287,79.924,325.82,88.378,325.82,97.596z"/>
		<polygon points="0,19.438 0,58.18 61.462,58.18 137.819,58.18 218.226,58.18 294.583,58.18 353.052,58.18 353.052,19.438 		"/>
	</g>
</g>
<g>
</g>
<g>
</g>
<g>
</g>
<g>
</g>
<g>
</g>
<g>
</g>
<g>
</g>
<g>
</g>
<g>
</g>
<g>
</g>
<g>
</g>
<g>
</g>
<g>
</g>
<g>
</g>
<g>
</g>
</svg>
